<svg id="Capa_1" data-name="Capa 1" xmlns="http://www.w3.org/2000/svg" viewBox="0 0 137.92 165.81"><defs><style>.cls-1{fill:#4996d1;}.cls-2{fill:#fff;}.cls-3{fill:#5ca792;}</style></defs><title>Logo</title><path class="cls-1" d="M84.34,67.08h51.13a7,7,0,0,1,7,7V98.77a0,0,0,0,1,0,0H77.33a0,0,0,0,1,0,0V74.1A7,7,0,0,1,84.34,67.08Z" transform="translate(192.83 -26.98) rotate(90)"/><rect class="cls-2" x="106.6" y="69.72" width="6.6" height="6.6" transform="translate(182.92 -36.88) rotate(90)"/><rect class="cls-2" x="106.6" y="79.62" width="6.6" height="6.6" transform="translate(192.83 -26.98) rotate(90)"/><rect class="cls-2" x="106.6" y="89.53" width="6.6" height="6.6" transform="translate(202.73 -17.07) rotate(90)"/><path class="cls-1" d="M2.45,67H53.58a7,7,0,0,1,7,7V98.73a0,0,0,0,1,0,0H-4.56a0,0,0,0,1,0,0V74.06A7,7,0,0,1,2.45,67Z" transform="translate(-54.87 110.9) rotate(-90)"/><rect class="cls-2" x="24.71" y="89.49" width="6.6" height="6.6" transform="translate(-64.78 120.81) rotate(-90)"/><rect class="cls-2" x="24.71" y="79.59" width="6.6" height="6.6" transform="translate(-54.87 110.9) rotate(-90)"/><rect class="cls-2" x="24.71" y="69.68" width="6.6" height="6.6" transform="translate(-44.97 101) rotate(-90)"/><path class="cls-3" d="M101.61,54H36.45V27.39a5.06,5.06,0,0,1,5.06-5.05h55a5.06,5.06,0,0,1,5.06,5.05Z"/><polygon class="cls-3" points="99.79 66.08 77.97 46.07 94.45 46.07 99.79 66.08"/><circle class="cls-2" cx="59.13" cy="38.57" r="3.31"/><circle class="cls-2" cx="69.03" cy="38.57" r="3.31"/><circle class="cls-2" cx="78.93" cy="38.57" r="3.31"/><path class="cls-3" d="M36.31,111.79h65.15v26.63a5.06,5.06,0,0,1-5,5.06h-55a5.06,5.06,0,0,1-5.06-5.06Z"/><polygon class="cls-3" points="38.13 99.74 59.95 119.74 43.47 119.74 38.13 99.74"/><circle class="cls-2" cx="78.79" cy="127.25" r="3.31"/><circle class="cls-2" cx="68.89" cy="127.25" r="3.31"/><circle class="cls-2" cx="58.98" cy="127.25" r="3.31"/><path class="cls-2" d="M31.32,62.83A3.31,3.31,0,0,0,28,66.14a3.3,3.3,0,0,0-3.3-3.31,3.29,3.29,0,0,0,3.3-3.3A3.3,3.3,0,0,0,31.32,62.83Z"/><path class="cls-2" d="M113.2,62.83a3.31,3.31,0,0,0-3.3,3.31,3.31,3.31,0,0,0-3.3-3.31,3.3,3.3,0,0,0,3.3-3.3A3.3,3.3,0,0,0,113.2,62.83Z"/></svg>